<svg width="438" height="178" viewBox="0 0 438 178" fill="none" xmlns="http://www.w3.org/2000/svg">
<path d="M87.1583 26.7923C84.7892 32.9127 82.1084 39.0956 79.1158 45.3409C76.248 51.5862 73.1307 57.7065 69.7641 63.702H165.713V165.063H136.536V155.695H68.8289V166H41.1477V102.86C37.7811 106.357 34.2898 109.73 30.6738 112.977C27.0577 116.225 23.2547 119.223 19.2646 121.971C17.7683 119.847 15.8356 117.474 13.4665 114.851C11.2221 112.228 8.91534 109.667 6.54623 107.169C4.17712 104.546 1.99504 102.423 0 100.799C8.7283 95.1783 16.5838 88.371 23.5664 80.377C30.6738 72.383 36.9083 63.7645 42.2699 54.5214C47.6316 45.1535 52.0581 35.9105 55.5494 26.7923H9.16472V0H176V26.7923H87.1583ZM136.536 89.7449H68.8289V129.465H136.536V89.7449Z" fill="#FF7A00"/>
<path d="M410.348 39.0799V14.6814H438V39.0799H410.348ZM410.348 164.123V54.3291H438V164.123H410.348Z" fill="white"/>
<path d="M383.019 163.992V112.145C383.019 109.638 382.883 106.452 382.612 102.589C382.341 98.6582 381.494 94.7273 380.071 90.7964C378.647 86.8655 376.309 83.5785 373.056 80.9353C369.871 78.2921 365.33 76.9705 359.434 76.9705C357.061 76.9705 354.52 77.3433 351.809 78.0888C349.098 78.8343 346.556 80.2915 344.184 82.4602C341.812 84.5612 339.847 87.6788 338.288 91.813C336.797 95.9472 336.052 101.437 336.052 108.282L320.192 100.759C320.192 92.0841 321.955 83.9512 325.479 76.3606C329.003 68.7699 334.289 62.6364 341.338 57.96C348.454 53.2836 357.4 50.9454 368.176 50.9454C376.784 50.9454 383.798 52.4025 389.22 55.3168C394.642 58.2311 398.844 61.9248 401.826 66.3978C404.876 70.8709 407.045 75.5473 408.332 80.427C409.62 85.2389 410.399 89.6442 410.671 93.6429C410.942 97.6416 411.077 100.556 411.077 102.386V163.992H383.019ZM307.993 163.992V17.6007H332.595V92.8296H336.052V163.992H307.993Z" fill="white"/>
<path d="M282.533 164.697C269.179 168.275 257.57 168.158 247.708 164.345C237.893 160.45 230.62 153.207 225.888 142.617L252.082 131.178C254.528 135.855 258.026 139.093 262.578 140.89C267.194 142.67 272.449 142.771 278.34 141.192C283.185 139.894 286.671 137.978 288.798 135.443C290.908 132.843 291.516 129.874 290.621 126.535C290.06 124.44 289.089 122.911 287.708 121.948C286.31 120.919 283.611 120.274 279.612 120.013C275.678 119.734 269.609 119.606 261.406 119.629C252.169 119.718 244.595 119.081 238.687 117.717C232.779 116.354 228.17 114.08 224.861 110.897C221.535 107.649 219.144 103.308 217.688 97.8742C215.864 91.0659 216.02 84.7093 218.157 78.8043C220.276 72.8338 224.118 67.6646 229.683 63.2966C235.296 58.8456 242.391 55.4712 250.967 53.1733C259.281 50.9455 266.988 50.2487 274.087 51.0828C281.187 51.9169 287.332 54.1644 292.523 57.8254C297.779 61.4688 301.725 66.3755 304.361 72.5455L278.378 84.7699C276.867 80.9649 274.332 78.3114 270.772 76.8095C267.212 75.3076 262.859 75.0356 257.713 75.9934C252.715 76.9817 248.93 78.6976 246.357 81.1411C243.85 83.5671 243.009 86.3184 243.833 89.3953C244.324 91.2283 245.358 92.6001 246.935 93.5106C248.578 94.4036 251.571 94.9698 255.916 95.209C260.325 95.4308 266.935 95.484 275.745 95.3687C284.358 95.306 291.464 96.0331 297.063 97.55C302.709 98.9839 307.172 101.367 310.45 104.698C313.711 107.964 316.078 112.347 317.551 117.846C320.463 128.713 318.824 138.308 312.635 146.632C306.446 154.956 296.412 160.978 282.533 164.697Z" fill="white"/>
<path d="M192.78 39.0799V14.6814H220.431V39.0799H192.78ZM192.78 164.123V54.3291H220.431V164.123H192.78Z" fill="white"/>
</svg>
